<?xml version="1.0" encoding="UTF-8"?>
<svg id="Layer_1" xmlns="http://www.w3.org/2000/svg" version="1.1" viewBox="0 0 1024 500">
  <!-- Generator: Adobe Illustrator 30.4.0, SVG Export Plug-In . SVG Version: 2.1.4 Build 226)  -->
  <defs>
    <style>
      .st0 {
        fill: #111;
      }

      .st1 {
        fill: #ca97ca;
      }

      .st2 {
        fill: #9191f3;
      }

      .st3 {
        fill: #fd9800;
      }

      .st4 {
        fill: #aaa;
        font-family: Helvetica-Light, Helvetica;
        font-size: 20px;
        font-weight: 300;
        letter-spacing: .05em;
      }

      .st4, .st5, .st6, .st7, .st8, .st9, .st10, .st11, .st12, .st13 {
        isolation: isolate;
      }

      .st14 {
        fill: #c896c8;
      }

      .st15 {
        fill: #c694c6;
      }

      .st16 {
        fill: #c997c9;
      }

      .st17 {
        fill: #8e8eee;
      }

      .st18 {
        fill: #0e0924;
      }

      .st19 {
        fill: #c9c;
      }

      .st20 {
        fill: #9494f7;
      }

      .st21 {
        fill: #9a98a2;
      }

      .st22, .st6 {
        fill: #9999fe;
      }

      .st23 {
        fill: #cb98cb;
      }

      .st6 {
        font-size: 12px;
        letter-spacing: .08em;
      }

      .st6, .st7 {
        font-family: RobotoMono-Regular, 'Roboto Mono';
      }

      .st24 {
        fill: #8b8ae8;
      }

      .st25 {
        fill: #120d2b;
      }

      .st26 {
        fill: #fefefe;
      }

      .st27 {
        fill: #e88b03;
      }

      .st7 {
        font-size: 72px;
      }

      .st7, .st9, .st10, .st11, .st12, .st13 {
        fill: #fff;
      }

      .st8 {
        fill: #888;
        font-family: Helvetica, Helvetica;
        font-size: 18px;
        letter-spacing: .33em;
      }

      .st28 {
        fill: #1a1a1a;
      }

      .st29 {
        fill: #cb99cb;
      }

      .st30 {
        fill: #0d0823;
      }

      .st31 {
        fill: #b588b8;
      }

      .st32 {
        fill: #c291c3;
      }

      .st33 {
        fill: #fdfdfd;
      }

      .st9 {
        opacity: .3;
      }

      .st10 {
        opacity: .35;
      }

      .st11 {
        opacity: .5;
      }

      .st12 {
        opacity: .45;
      }

      .st13 {
        opacity: .4;
      }
    </style>
  </defs>
  <rect y="0" width="1024" height="500"/>
  <circle class="st11" cx="48" cy="42" r="1.5"/>
  <circle class="st13" cx="130" cy="88" r="1.2"/>
  <circle class="st10" cx="220" cy="35" r="1.8"/>
  <circle class="st11" cx="310" cy="72" r="1"/>
  <circle class="st13" cx="420" cy="28" r="1.4"/>
  <circle class="st9" cx="560" cy="55" r="1.2"/>
  <circle class="st12" cx="680" cy="38" r="1.6"/>
  <circle class="st13" cx="780" cy="80" r="1"/>
  <circle class="st11" cx="880" cy="22" r="1.3"/>
  <circle class="st10" cx="970" cy="65" r="1.5"/>
  <circle class="st13" cx="60" cy="440" r="1.2"/>
  <circle class="st10" cx="160" cy="468" r="1.5"/>
  <circle class="st11" cx="290" cy="455" r="1"/>
  <circle class="st13" cx="740" cy="462" r="1.3"/>
  <circle class="st10" cx="860" cy="445" r="1.6"/>
  <circle class="st12" cx="960" cy="475" r="1.2"/>
  <circle class="st9" cx="75" cy="200" r="1"/>
  <circle class="st9" cx="950" cy="280" r="1.2"/>
  <circle class="st10" cx="995" cy="155" r="1"/>
  <circle class="st9" cx="30" cy="320" r="1.3"/>
  <g class="st5">
    <text class="st8" transform="translate(428.48 178)"><tspan x="0" y="0">WEAROS WATCH FACE</tspan></text>
  </g>
  <g class="st5">
    <text class="st7" transform="translate(363.96 265)"><tspan x="0" y="0">BrightDate</tspan></text>
  </g>
  <rect class="st22" x="370" y="280" width="420" height="3"/>
  <g class="st5">
    <text class="st4" transform="translate(401.33 330)"><tspan x="0" y="0">One universal scalar. No timezones.</tspan></text>
  </g>
  <path class="st28" d="M376,368h112c9.94,0,18,8.06,18,18h0c0,9.94-8.06,18-18,18h-112c-9.94,0-18-8.06-18-18h0c0-9.94,8.06-18,18-18Z"/>
  <text class="st6" transform="translate(366.39 391)"><tspan x="0" y="0">J2000.0 ANCHORED</tspan></text>
  <path class="st28" d="M536,368h92c9.94,0,18,8.06,18,18h0c0,9.94-8.06,18-18,18h-92c-9.94,0-18-8.06-18-18h0c0-9.94,8.06-18,18-18Z"/>
  <text class="st6" transform="translate(528.69 391)"><tspan x="0" y="0">TAI SUBSTRATE</tspan></text>
  <path class="st28" d="M676,368h112c9.94,0,18,8.06,18,18h0c0,9.94-8.06,18-18,18h-112c-9.94,0-18-8.06-18-18h0c0-9.94,8.06-18,18-18Z"/>
  <text class="st6" transform="translate(678.69 391)"><tspan x="0" y="0">TIMEZONE-FREE</tspan></text>
  <rect class="st22" y="0" width="1024" height="3"/>
  <rect class="st22" y="497" width="1024" height="3"/>
  <g>
    <rect class="st0" x="67.63" y="162.35" width="260" height="241.3" rx="40" ry="40"/>
    <g>
      <path class="st30" d="M310.67,216.13c0,45.32,0,90.63-.07,136.01-52.92.06-105.78.06-158.64.06v15.14c.36,0,.66,0,.97,0,52.25,0,104.5,0,156.75,0,.33,0,.66.01.99.02v30.19c-75.59,0-151.18,0-226.79,0v-226.78h226.79c0,10.01,0,20.03-.07,30.12-15.97.07-31.87.07-47.78.07v15.15h47.85M104.02,328.04c0-33.83,0-67.66,0-101.49,0-6.02,4.39-10.42,10.4-10.42,8.01,0,16.02,0,24.02,0h.8v-15.12c-.16,0-.27-.02-.39-.02-8.2,0-16.39-.02-24.59,0-2.8,0-5.55.4-8.2,1.34-10.53,3.72-17.16,13.02-17.17,24.18-.01,38.44,0,76.87,0,115.31,0,2.68.35,5.31,1.17,7.88,3.41,10.68,13.06,17.64,24.48,17.65,7.98,0,15.97,0,23.95,0h.75v-15.14h-.8c-8.01,0-16.02,0-24.02-.01-.82,0-1.66-.06-2.46-.24-4.76-1.08-7.94-5.07-7.95-9.95-.01-4.61,0-9.21,0-13.96M168.85,278.8c-.02-2.48.05-4.96-.09-7.42-.21-3.67-1.18-7.15-3.1-10.32-1.58-2.62-3.74-4.59-6.63-5.7-2.58-1-5.23-1.19-7.93-.78-4.21.65-7.51,2.72-9.53,6.54-2.33,4.39-2.62,9.06-1.5,13.82.69,2.96,2.25,5.43,4.81,7.18,2.39,1.63,5.08,2.21,7.92,2.2,4.07-.02,7.39-1.48,9.59-5.07.1-.17.3-.27.53-.48.04.24.08.33.07.41-.18,3.42-.52,6.82-1.73,10.07-1.3,3.5-3.56,6.14-7.11,7.52-2.52.98-5.16,1.07-7.81.81-1.11-.11-2.2-.38-3.31-.57v4.87c.21.06.39.13.57.16,3.31.57,6.62.62,9.92-.04,3.7-.74,6.93-2.39,9.48-5.25,2.28-2.56,3.58-5.62,4.5-8.87.83-2.92,1.16-5.92,1.35-9.07M183.65,258.29c-2.99,2.41-4.76,5.61-5.95,9.18-1.32,3.98-1.73,8.1-1.86,12.26-.11,3.48.01,6.93.89,10.32.71,2.74,1.8,5.32,3.63,7.51,3.3,3.94,7.62,5.29,12.6,4.75,5.38-.59,9.13-3.43,11.08-8.5,1.29-3.34,1.47-6.82.94-10.32-.45-3.03-1.66-5.74-3.99-7.84-2.04-1.83-4.48-2.72-7.18-3-4.76-.48-8.8.67-11.49,4.97-.1.15-.3.24-.59.45.18-4.06.58-7.86,2.15-11.44,1.46-3.32,3.86-5.64,7.36-6.75,2.05-.65,4.16-.81,6.29-.66,1.39.1,2.78.37,4.17.56v-4.8c-.23-.06-.45-.15-.68-.17-1.64-.15-3.28-.4-4.93-.42-4.52-.05-8.74.97-12.46,3.89M214.45,301.36c1.6.3,3.18.69,4.79.87,3.87.43,7.73.36,11.5-.77,2.69-.8,5.07-2.13,6.88-4.36,1.78-2.19,2.59-4.72,2.77-7.5.15-2.25-.11-4.43-1.23-6.43-1.51-2.7-3.91-4.22-6.79-5.07-1.14-.34-2.31-.54-3.68-.85.57-.13.95-.22,1.32-.31,7.26-1.74,10.06-7.62,8.6-13.97-.98-4.22-3.91-6.66-7.94-7.84-3.71-1.09-7.45-.98-11.19-.08-3.09.74-5.89,2.09-8.41,4.12.99,1.34,1.96,2.66,2.94,3.98.32-.22.57-.39.82-.56,3.43-2.35,7.18-3.62,11.38-3.23,2.04.19,3.89.86,5.23,2.48,1.89,2.29,1.94,4.91,1.04,7.56-1.04,3.08-3.44,4.66-6.48,5.41-2.35.57-4.74.4-7.12.43-.29,0-.59,0-.88,0v4.82c1.35,0,2.67-.05,3.98.01,1.69.09,3.39.17,5.07.43,2.16.33,4.1,1.17,5.65,2.81,2.44,2.59,1.98,7.5.6,9.86-1.42,2.44-3.73,3.53-6.36,4.02-4.11.77-8.13.24-12.06-1.04-1.35-.44-2.66-1.04-4.02-1.58,0,1.65-.01,3.3.02,4.95,0,.19.19.48.37.56,1.01.44,2.05.83,3.18,1.27M263.4,301.82h13.15v-5.35h-22.1c.15-.22.21-.34.3-.44,2.62-2.79,5.29-5.52,7.84-8.37,2.75-3.08,5.53-6.14,8.02-9.42,2.72-3.58,4.3-7.63,4.1-12.28-.22-5.2-3.3-9.38-8.29-10.86-4.27-1.27-8.44-.86-12.52.84-2.23.93-4.19,2.3-6.01,3.94,1.11,1.29,2.18,2.53,3.25,3.79.31-.26.57-.47.83-.67,2.66-2.09,5.53-3.64,9.05-3.7,3.79-.07,6.79,1.84,7.58,5.6.52,2.47.21,4.89-.67,7.23-1.11,2.96-2.97,5.46-5.07,7.78-4.78,5.28-9.59,10.55-14.44,15.77-.75.8-1.12,1.58-1.03,2.67.09,1.14.02,2.29.02,3.47h15.97M151.91,207.13v8.96h30.18v-15.07h-30.18v6.11M124.2,288.64c0-4.39,0-8.79,0-13.18,0-2.44-1.43-3.88-3.87-3.9-2.5-.01-5.01-.02-7.51,0-2.31.02-3.74,1.49-3.74,3.79,0,6.71,0,13.42,0,20.13,0,2.31,1.4,3.79,3.71,3.83,2.55.04,5.1.04,7.65,0,2.3-.03,3.73-1.49,3.75-3.8.02-2.24,0-4.49,0-6.87M109.17,306.66c.55,1.79,1.79,2.72,3.66,2.73,2.59,0,5.19.01,7.78,0,2.09-.01,3.56-1.55,3.6-3.73.04-2.17-1.4-3.79-3.49-3.82-2.74-.04-5.47-.03-8.21,0-1.52.02-2.86.99-3.23,2.41-.19.73-.1,1.53-.11,2.42M247.89,324.21c-.91-1.1-2.12-1.6-3.51-1.74-2-.2-3.66.37-4.85,2.12-.03-1.51.15-2.94.68-4.31.74-1.91,2.12-3.06,4.13-3.31,1.1-.14,2.23-.02,3.35-.02v-2c-1.23,0-2.43-.1-3.61.02-2.62.27-4.58,1.59-5.77,4-.9,1.82-1.2,3.77-1.32,5.75-.14,2.3-.03,4.57.97,6.72,2.07,4.43,7.57,4.11,9.71,1.58,1.9-2.23,2.04-6.37.2-8.8M112.1,261.52c-2.19.53-3.17,1.9-3.01,4.26.12,1.79,1.6,3.23,3.4,3.24,2.74.02,5.48.02,8.22,0,2.04-.01,3.48-1.58,3.49-3.74.01-2.14-1.46-3.76-3.48-3.78-2.83-.02-5.67,0-8.63.02M109.74,257.51c.79,1.02,1.84,1.48,3.14,1.46,2.52-.03,5.05,0,7.57,0,2.28,0,3.76-1.49,3.76-3.77,0-2.27-1.48-3.77-3.76-3.77-2.62,0-5.24,0-7.85,0-1.03,0-1.88.38-2.57,1.13-1.15,1.23-1.29,3.21-.28,4.96M258.23,317c-2.3,3.42-4.57,6.88-6.94,10.25-.69.98-.53,1.92-.54,3h8.98v4.3h2.34v-4.35h2.78v-2.21h-2.81v-12.85c-1.51-.25-2.88-.29-3.51,1.43-.05.13-.16.24-.29.44M217.99,318.96c-.31-1.71-1.23-2.93-2.84-3.61-1.11-.47-2.28-.56-3.47-.43-1.81.2-3.36.96-4.71,2.24.47.54.89,1.03,1.25,1.45.97-.52,1.81-1.13,2.75-1.45,2.66-.9,5.06.44,4.62,3.73-.2,1.51-.9,2.78-1.87,3.89-1.98,2.25-3.95,4.51-6.05,6.65-.93.95-.99,1.92-.84,3.08h12.01v-2.2h-9.15c.21-.23.33-.37.46-.51,1.92-2.11,3.9-4.18,5.74-6.35,1.53-1.81,2.51-3.89,2.11-6.49M229.33,328.51c1.47-3.49,2.91-7,4.43-10.47.41-.94.39-1.86.35-2.84h-12.44v2.16h9.99c-2.5,5.77-4.96,11.44-7.47,17.22.74,0,1.37-.03,1.99.01.46.03.66-.16.83-.56.74-1.81,1.51-3.61,2.3-5.51M269.43,317.85c-.53.42-1.06.84-1.62,1.28.44.57.84,1.08,1.28,1.64,1.19-1,2.33-1.97,3.5-2.96v16.71h2.23v-19.34c-1.14-.14-2.13-.11-2.99.75-.7.7-1.55,1.24-2.41,1.91M195.06,204.91h-2.16v7.12c1.11,0,2.17.08,3.22-.02,1.26-.13,2.04-1.21,1.66-2.37-.18-.57-.77-1-1.15-1.46.78-.38,1.08-.86.96-1.78-.1-.78-.56-1.21-1.54-1.4-.28-.05-.56-.05-.98-.09M233.24,211.81c1.2-.47,1.77-1.41,1.97-2.63.35-2.18-.7-3.9-2.67-4.18-.99-.14-2.01-.02-3.03-.02v7.25c1.25-.12,2.44-.24,3.72-.41M212.6,212.19c.56-.08,1.12-.13,1.67-.26.16-.04.39-.28.39-.44.04-1.04.02-2.07.02-3.13h-2.52c.02.28.03.5.05.8h1.55c0,.62.01,1.16,0,1.7,0,.14-.08.34-.19.41-1.09.63-3.22-.1-3.62-1.31-.2-.61-.26-1.3-.22-1.94.1-1.5,1.13-2.42,2.63-2.37.62.02,1.25.18,1.92.28.09-.2.19-.42.28-.64-1.13-.52-2.42-.62-3.49-.28-1.04.32-1.75,1-2.12,2.02-1.02,2.82.56,5.13,3.66,5.17M218.75,208.77h2.26v3.28h.87v-7.09h-.91v2.92h-3.63v-2.95h-.88v7.18c.32-.02.59-.03.91-.04v-3.3h1.39M199.39,205.31v6.75h.89v-2.85c.97-.24,1.64-.1,2,.86.2.52.6.96.84,1.47.29.64.74.64,1.36.48-.66-1.08-1.27-2.09-1.89-3.11,1.24-.74,1.61-1.48,1.33-2.6-.21-.86-.95-1.33-2.22-1.38-.61-.03-1.23-.03-1.84,0-.16,0-.31.16-.46.39M251.45,208.75h.8v-.85h-2.83v-2.16h3.01v-.8h-3.95v7.13h4.02c-.02-.28-.04-.5-.06-.77h-3.01v-2.53c.67,0,1.28,0,2.02,0M238.01,206.33c-.74,1.9-1.47,3.79-2.22,5.71q.88.12,1.15-.59.6-1.56,2.15-1.56c1.29,0,1.31,0,1.83,1.42.21.58.44,1.05,1.24.72-.89-2.29-1.77-4.59-2.68-6.87-.05-.14-.33-.27-.49-.26-.19.01-.43.15-.53.31-.19.32-.28.69-.47,1.14M245.13,206.99v-1.27h2.27c-.01-.32-.02-.55-.03-.77h-5.39v.81h2.24v6.3h.91c0-1.68,0-3.3,0-5.06M225.69,204.9h-2.67v.87h2.26v6.31h.91v-6.35h2.16v-.82c-.87,0-1.7,0-2.66,0M202.92,331.59c-.72-.46-1.46-.5-2.17,0-.57.39-.76,1.35-.51,2.2.22.77.74,1.15,1.56,1.16.84,0,1.37-.34,1.6-1.1.24-.78.18-1.53-.47-2.25M206.85,206.31c-.03-.4-.02-.74.52-.82.14-.02.25-.28.48-.55h-2.75q.02.44.76.75v5.67c-.32.21-1,0-.72.76.72,0,1.43.01,2.13-.01.14,0,.28-.16.41-.25-.12-.12-.23-.34-.35-.35-.52-.04-.49-.39-.49-.75,0-1.44,0-2.87,0-4.45M256.93,226.25c.37-.32.92-.58,1.08-.98.4-1.03.37-2.13,0-3.19-.23-.64-.7-1-1.4-.99-.7.02-1.25.39-1.33,1.05-.12.96-.16,1.97-.02,2.92.13.89.62,1.15,1.67,1.18M276.21,344.61c-.08-.53-.09-1.09-.26-1.59-.23-.69-.88-1.03-1.57-.96-.7.07-1.18.53-1.32,1.27-.12.64-.06,1.26.49,1.67.64.47,1.3.38,1.93-.13-.03,1.37-.33,1.64-2.25,1.91.22.2.34.41.5.45.83.19,1.77-.27,2.11-1.06.19-.45.25-.95.37-1.56M278.85,342.12c-.72-.17-1.34.01-1.86.63.24.08.46.05.69.05.42,0,1-.15,1.22.07.23.23.17.81.1,1.22-.05.27-.31.52-.51.75-.45.52-.93,1-1.37,1.53-.16.19-.23.45-.41.83,1.04,0,1.88.02,2.72-.01.2,0,.4-.18.6-.28-.19-.11-.38-.29-.57-.3-.54-.04-1.09-.01-1.78-.01.29-.34.46-.52.62-.72.42-.51.89-.99,1.25-1.53.47-.71.36-1.92-.7-2.22M267.59,343.79c-.36.74-1.18,1.26-1.13,2.3h2.09c.22.44.38.78.54,1.11.16-.33.32-.67.52-1.1.07-.01.29-.06.5-.1.03-.07.07-.14.1-.21-.25-.16-.49-.32-.81-.52v-3.33c-.41.24-.72.34-.91.55-.32.37-.56.81-.9,1.3M275.45,224.61c-.1.3-.16.81-.32.85-.69.16-1.42.18-2.15.25,0,.41,0,.42.67.53,1.19.19,2.1-.15,2.38-.9.27-.75,0-1.29-.91-1.77.84-.57,1.08-1.31.61-1.93-.54-.72-1.88-.71-2.91.19.38.02.58.06.77.03.3-.04.61-.24.88-.18.29.07.74.34.75.54.02.32-.23.69-.45.98-.1.13-.4.09-.6.16-.17.06-.32.16-.48.25.16.09.31.24.47.26.48.08,1.01.04,1.28.74M262.05,226.12c.1-.37-.03-.51-.42-.5-.6.02-1.19,0-1.91,0,.58-.64,1.11-1.12,1.5-1.7.31-.47.56-1.04.63-1.6.07-.5-.27-.94-.81-1.12-.77-.26-1.42-.04-2.01.45.19.63.48.2.76.17.39-.05.94-.13,1.15.08.22.22.19.77.14,1.16-.04.27-.28.54-.48.77-.44.52-.93,1-1.37,1.53-.17.21-.26.49-.43.84,1.15,0,2.14,0,3.24-.07M278.93,224.46c.37-1.08,1.06-2.06,1.2-3.31-1.03,0-1.93-.01-2.82.01-.16,0-.31.18-.46.27.16.11.32.3.49.31.65.04,1.31.01,2.08.01-.66,1.53-1.27,2.95-1.88,4.37.52.19.73,0,.86-.4.13-.4.33-.78.53-1.27M265.02,345.06c.32-.95.96-1.81,1.02-2.92-1.01,0-1.93,0-2.84,0-.47,0-.5.2-.31.6h2.47c-.65,1.51-1.26,2.94-1.88,4.38.49.2.71,0,.85-.39.2-.53.43-1.04.69-1.66M133.79,190.13c.37-.84.17-1.54-.52-1.84-.67-.3-1.43.02-1.69.7-.22.58-.04,1.08.43,1.45.51.4,1.1.31,1.78-.31M269.98,221.72c-.19.16-.38.32-.58.48.5.83.74-.25,1.2-.05,0,1.15,0,2.35,0,3.54,0,.53.02.53.6.41v-5.13c-.47.29-.81.49-1.23.76M266.72,222.52v3.66c.08.03.16.07.25.1.12-.17.29-.33.34-.52.06-.25.01-.52.01-.78,0-1.27,0-2.53,0-3.8-.07-.05-.14-.1-.21-.15-.49.36-1,.71-1.47,1.09-.05.04.07.29.12.51.36-.26.64-.45.96-.68,0,.21,0,.32,0,.56M99.99,367.52c-.03-.8-.42-1.25-1.05-1.19-.53.05-.87.35-.93.9-.06.54.21.92.72,1.06.6.17.99-.12,1.26-.77M257.05,381.72c-.48.73-.33,1.44.36,1.67.48.16.97.05,1.15-.4.13-.33.11-.85-.07-1.15-.31-.51-.85-.52-1.44-.12M204.85,186.91c.59-.08,1.02-.42.95-1.01-.04-.34-.37-.76-.69-.93-.48-.27-1.03.06-1.23.6-.22.59.08,1.05.97,1.34M94.67,180.9c-.52.21-.85.61-.67,1.14.11.32.46.66.78.77.56.2,1.09-.24,1.16-.81.08-.69-.33-1.09-1.27-1.11M293.04,375.76c.48.23.98.2,1.25-.25.17-.29.23-.81.08-1.09-.15-.27-.63-.49-.96-.48-.27,0-.62.32-.78.58-.26.44-.06.86.42,1.24M279.47,179.59c-.11.49.02.96.49,1.11.33.11.82.06,1.09-.13.23-.17.39-.68.32-.97-.08-.29-.44-.62-.75-.72-.5-.16-.91.1-1.15.7M113.38,344.97c-.07.46.09.83.56.89.25.03.7-.12.76-.28.09-.29.07-.78-.12-.97-.41-.4-.85-.22-1.19.36M205.17,371.7c-.55-.18-.99,0-1.04.55-.03.26.28.65.54.81.15.09.6-.08.76-.27.3-.35.2-.74-.26-1.09M297.76,196.72c-.28-.16-.55-.41-.85-.44-.17-.01-.49.3-.55.52-.14.48.09.86.61.91.59.05.85-.29.79-.99M287.6,260.85c-.51.59-.42,1.26.22,1.34.24.03.61-.08.73-.25.14-.21.19-.67.06-.81-.19-.21-.59-.23-1-.28M263.8,223.8c-.16,0-.34-.04-.49,0-.18.06-.34.19-.51.3.16.11.3.28.47.33.19.06.43.05.62,0,.22-.06.43-.2.64-.31-.21-.11-.41-.22-.74-.33M272.2,345.37c.26-.34.24-.56-.25-.57-.44,0-.88,0-1.32,0-.04.07-.08.13-.13.2.15.13.29.35.46.37.36.06.74.02,1.23,0Z"/>
      <path class="st22" d="M310.67,367.31c-.33.06-.66.04-.99.04-52.25,0-104.5,0-156.75,0-.3,0-.61,0-.97,0v-15.14c52.86,0,105.72,0,158.64,0,.07,5.01.07,10.02.07,15.1Z"/>
      <path class="st29" d="M310.67,216.07c-15.93.07-31.87.07-47.85.07v-15.15c15.91,0,31.81,0,47.78,0,.07,5,.07,10.01.07,15.09Z"/>
      <path class="st23" d="M104.02,328.11c0,4.68,0,9.28,0,13.89.01,4.88,3.19,8.88,7.95,9.95.8.18,1.64.24,2.46.24,8.01.02,16.02.01,24.02.01h.8v15.14h-.75c-7.98,0-15.97,0-23.95,0-11.42-.01-21.07-6.98-24.48-17.65-.82-2.56-1.17-5.2-1.17-7.88,0-38.44-.01-76.87,0-115.31,0-11.16,6.63-20.47,17.17-24.18,2.65-.94,5.4-1.33,8.2-1.34,8.2-.02,16.39,0,24.59,0,.11,0,.23.01.39.02v15.12h-.8c-8.01,0-16.02,0-24.02,0-6.01,0-10.4,4.4-10.4,10.42,0,33.83,0,67.66,0,101.56Z"/>
      <path class="st33" d="M168.85,278.87c-.19,3.08-.52,6.08-1.35,9-.92,3.25-2.22,6.31-4.5,8.87-2.55,2.85-5.77,4.5-9.48,5.25-3.3.66-6.61.61-9.92.04-.18-.03-.36-.1-.57-.16v-4.87c1.1.2,2.2.46,3.31.57,2.65.26,5.29.17,7.81-.81,3.54-1.38,5.81-4.02,7.11-7.52,1.21-3.24,1.55-6.64,1.73-10.07,0-.09-.03-.17-.07-.41-.23.2-.43.31-.53.48-2.19,3.59-5.52,5.06-9.59,5.07-2.84.01-5.53-.57-7.92-2.2-2.56-1.74-4.11-4.22-4.81-7.18-1.12-4.76-.83-9.43,1.5-13.82,2.03-3.82,5.32-5.89,9.53-6.54,2.7-.42,5.35-.22,7.93.78,2.89,1.12,5.05,3.08,6.63,5.7,1.91,3.17,2.88,6.66,3.1,10.32.14,2.47.07,4.95.09,7.49M149.53,260.3c-1.45.81-2.51,1.99-3.17,3.5-1.49,3.42-1.62,6.96-.62,10.51.7,2.46,2.31,4.18,4.79,4.98,1.51.49,3.05.52,4.62.34,3.94-.47,7.37-3.56,7.89-7.41.39-2.85-.29-5.59-1.65-8.12-2.41-4.48-7.22-6.04-11.86-3.81Z"/>
      <path class="st33" d="M183.69,258.26c3.68-2.89,7.9-3.91,12.42-3.86,1.64.02,3.29.26,4.93.42.23.02.45.11.68.17v4.8c-1.39-.19-2.77-.46-4.17-.56-2.13-.15-4.24.01-6.29.66-3.51,1.11-5.9,3.42-7.36,6.75-1.58,3.58-1.98,7.38-2.15,11.44.28-.21.49-.3.59-.45,2.69-4.3,6.73-5.45,11.49-4.97,2.7.27,5.14,1.16,7.18,3,2.33,2.1,3.54,4.81,3.99,7.84.52,3.5.34,6.98-.94,10.32-1.95,5.08-5.7,7.91-11.08,8.5-4.98.55-9.3-.81-12.6-4.75-1.84-2.19-2.92-4.77-3.63-7.51-.88-3.39-1-6.85-.89-10.32.13-4.16.54-8.28,1.86-12.26,1.19-3.57,2.96-6.78,5.99-9.21M190.83,297.53c.21,0,.42,0,.63-.01,3.3-.14,5.76-1.65,7.03-4.71,1.49-3.57,1.55-7.26.29-10.92-.49-1.43-1.39-2.65-2.72-3.43-3.31-1.95-6.68-1.8-9.96,0-2.77,1.53-4.41,3.91-4.48,7.14-.06,2.88.63,5.62,2.29,8.03,1.63,2.36,3.8,3.84,6.9,3.9Z"/>
      <path class="st33" d="M214.39,301.35c-1.08-.42-2.12-.81-3.13-1.25-.18-.08-.36-.37-.37-.56-.03-1.65-.02-3.3-.02-4.95,1.36.54,2.66,1.14,4.02,1.58,3.93,1.29,7.95,1.81,12.06,1.04,2.63-.49,4.94-1.57,6.36-4.02,1.38-2.36,1.84-7.27-.6-9.86-1.55-1.64-3.49-2.48-5.65-2.81-1.67-.26-3.37-.35-5.07-.43-1.31-.07-2.63-.01-3.98-.01v-4.82c.29,0,.58,0,.88,0,2.38-.03,4.77.15,7.12-.43,3.04-.74,5.44-2.33,6.48-5.41.89-2.65.85-5.27-1.04-7.56-1.34-1.62-3.19-2.29-5.23-2.48-4.21-.39-7.95.88-11.38,3.23-.25.17-.51.35-.82.56-.97-1.32-1.95-2.64-2.94-3.98,2.53-2.04,5.32-3.38,8.41-4.12,3.73-.9,7.48-1.01,11.19.08,4.03,1.18,6.96,3.62,7.94,7.84,1.47,6.34-1.34,12.23-8.6,13.97-.38.09-.76.18-1.32.31,1.36.31,2.54.52,3.68.85,2.88.85,5.28,2.37,6.79,5.07,1.12,2.01,1.37,4.18,1.23,6.43-.18,2.77-.99,5.31-2.77,7.5-1.81,2.22-4.19,3.55-6.88,4.36-3.77,1.12-7.63,1.19-11.5.77-1.61-.18-3.19-.57-4.85-.88Z"/>
      <path class="st33" d="M263.32,301.82h-15.9c0-1.18.07-2.33-.02-3.47-.08-1.09.29-1.87,1.03-2.67,4.85-5.23,9.65-10.49,14.44-15.77,2.1-2.32,3.96-4.82,5.07-7.78.88-2.34,1.19-4.76.67-7.23-.79-3.76-3.79-5.67-7.58-5.6-3.51.06-6.39,1.61-9.05,3.7-.26.2-.51.42-.83.67-1.08-1.25-2.15-2.5-3.25-3.79,1.82-1.64,3.77-3.01,6.01-3.94,4.07-1.7,8.25-2.11,12.52-.84,4.99,1.48,8.07,5.66,8.29,10.86.2,4.65-1.38,8.71-4.1,12.28-2.49,3.28-5.27,6.35-8.02,9.42-2.55,2.85-5.22,5.59-7.84,8.37-.09.1-.15.22-.3.44h22.1v5.35h-13.22Z"/>
      <path class="st19" d="M151.91,207.06v-6.04h30.18v15.07h-30.18v-9.03Z"/>
      <path class="st26" d="M124.2,288.71c0,2.31.02,4.56,0,6.8-.02,2.3-1.45,3.77-3.75,3.8-2.55.03-5.1.04-7.65,0-2.31-.04-3.71-1.52-3.71-3.83,0-6.71,0-13.42,0-20.13,0-2.3,1.43-3.77,3.74-3.79,2.5-.02,5.01-.02,7.51,0,2.43.01,3.86,1.45,3.87,3.9.01,4.39,0,8.79,0,13.25Z"/>
      <path class="st3" d="M109.15,306.6c.02-.83-.06-1.63.13-2.36.36-1.41,1.71-2.39,3.23-2.41,2.74-.03,5.47-.04,8.21,0,2.09.03,3.53,1.65,3.49,3.82-.04,2.18-1.51,3.72-3.6,3.73-2.59.02-5.19,0-7.78,0-1.86,0-3.11-.93-3.67-2.78Z"/>
      <path class="st16" d="M247.92,324.24c1.81,2.39,1.66,6.53-.23,8.76-2.15,2.52-7.65,2.85-9.71-1.58-1-2.14-1.11-4.42-.97-6.72.12-1.98.42-3.93,1.32-5.75,1.19-2.41,3.14-3.72,5.77-4,1.18-.12,2.38-.02,3.61-.02v2c-1.12,0-2.25-.11-3.35.02-2.01.25-3.4,1.4-4.13,3.31-.53,1.38-.71,2.8-.68,4.31,1.18-1.76,2.85-2.33,4.85-2.12,1.39.14,2.6.64,3.54,1.78M239.68,326.55c-.66,1.96-.17,3.69,1.15,5.18,1.32,1.49,3.88,1.4,5.08-.09,1.13-1.4,1.29-4.38.31-5.9-.15-.23-.34-.45-.55-.64-1.71-1.5-4.7-.81-5.98,1.45Z"/>
      <path class="st23" d="M112.16,261.51c2.9-.01,5.73-.04,8.56-.01,2.02.02,3.49,1.64,3.48,3.78-.01,2.17-1.45,3.73-3.49,3.74-2.74.02-5.48.02-8.22,0-1.8-.01-3.28-1.45-3.4-3.24-.15-2.36.82-3.73,3.07-4.27Z"/>
      <path class="st22" d="M109.71,257.47c-.98-1.7-.84-3.69.31-4.91.7-.74,1.55-1.13,2.57-1.13,2.62,0,5.24,0,7.85,0,2.27,0,3.77,1.5,3.76,3.77,0,2.27-1.49,3.76-3.76,3.77-2.52,0-5.05-.02-7.57,0-1.3.01-2.34-.44-3.16-1.51Z"/>
      <path class="st14" d="M258.26,316.95c.11-.16.22-.26.26-.39.64-1.72,2-1.68,3.51-1.43v12.85h2.81v2.21h-2.78v4.35h-2.34v-4.3h-8.98c.02-1.08-.14-2.02.54-3,2.38-3.37,4.64-6.83,6.97-10.29M258.87,319.47c-1.88,2.81-3.76,5.61-5.69,8.49h6.59v-10.25c-.28.55-.56,1.12-.9,1.77Z"/>
      <path class="st14" d="M218,319.02c.39,2.55-.59,4.62-2.12,6.43-1.84,2.18-3.82,4.24-5.74,6.35-.13.14-.25.28-.46.51h9.15v2.2h-12.01c-.15-1.15-.09-2.13.84-3.08,2.1-2.13,4.08-4.39,6.05-6.65.97-1.11,1.67-2.38,1.87-3.89.44-3.29-1.96-4.62-4.62-3.73-.94.32-1.78.93-2.75,1.45-.36-.42-.78-.91-1.25-1.45,1.35-1.28,2.9-2.04,4.71-2.24,1.18-.13,2.35-.04,3.47.43,1.61.68,2.54,1.9,2.85,3.67Z"/>
      <path class="st1" d="M229.32,328.56c-.78,1.85-1.55,3.65-2.29,5.46-.17.4-.37.59-.83.56-.63-.04-1.26-.01-1.99-.01,2.51-5.78,4.97-11.45,7.47-17.22h-9.99v-2.16h12.44c.04.98.06,1.9-.35,2.84-1.52,3.47-2.96,6.98-4.45,10.53Z"/>
      <path class="st15" d="M269.46,317.82c.82-.64,1.67-1.18,2.37-1.88.86-.86,1.86-.89,2.99-.75v19.34h-2.23v-16.71c-1.17.99-2.32,1.95-3.5,2.96-.44-.56-.84-1.08-1.28-1.64.56-.44,1.09-.86,1.66-1.31Z"/>
      <path class="st20" d="M195.13,204.92c.35.03.64.03.91.08.99.19,1.45.61,1.54,1.4.12.92-.18,1.4-.96,1.78.38.46.97.9,1.15,1.46.38,1.16-.4,2.24-1.66,2.37-1.05.11-2.11.02-3.22.02v-7.12c.72,0,1.44,0,2.23,0M193.73,209.14v2.15c.72,0,1.37.1,1.97-.04.41-.1.92-.45,1.07-.83.14-.34-.01-.93-.24-1.28-.31-.48-2.27-.6-2.78-.29-.02.02-.01.09-.02.27M195.18,207.94c.12,0,.24,0,.35-.02.76-.08,1.14-.43,1.15-1.08,0-.69-.38-1.04-1.03-1.1-.62-.06-1.24-.07-1.89-.11v2.32c.45,0,.87,0,1.42-.02Z"/>
      <path class="st2" d="M233.19,211.83c-1.23.14-2.42.26-3.67.38v-7.25c1.01,0,2.04-.12,3.03.02,1.97.28,3.02,2,2.67,4.18-.2,1.22-.78,2.16-2.02,2.66M232.55,205.8c-.69-.05-1.38-.11-2.09-.16v5.61c2.13.25,3.31-.32,3.69-1.76.46-1.73-.08-3.06-1.6-3.69Z"/>
      <path class="st2" d="M212.54,212.19c-3.03-.04-4.62-2.35-3.6-5.17.37-1.02,1.08-1.7,2.12-2.02,1.07-.33,2.36-.23,3.49.28-.1.22-.2.45-.28.64-.68-.1-1.3-.26-1.92-.28-1.5-.05-2.53.87-2.63,2.37-.04.64.01,1.34.22,1.94.41,1.21,2.53,1.94,3.62,1.31.11-.06.19-.27.19-.41.02-.54,0-1.08,0-1.7h-1.55c-.02-.3-.03-.52-.05-.8h2.52c0,1.06.02,2.09-.02,3.13,0,.16-.23.4-.39.44-.55.13-1.11.18-1.73.26Z"/>
      <path class="st17" d="M218.68,208.77h-1.32v3.3c-.32.02-.59.03-.91.04v-7.18h.88v2.95h3.63v-2.92h.91v7.09h-.87v-3.28h-2.33Z"/>
      <path class="st20" d="M199.4,205.24c.16-.16.31-.32.46-.32.61-.02,1.23-.02,1.84,0,1.27.05,2.01.52,2.22,1.38.28,1.12-.09,1.86-1.33,2.6.62,1.02,1.24,2.03,1.89,3.11-.61.15-1.06.16-1.36-.48-.24-.51-.64-.95-.84-1.47-.36-.96-1.03-1.1-2-.86v2.85h-.89c0-2.28,0-4.51,0-6.82M200.27,205.92v2.49c.71-.07,1.35-.08,1.96-.2.55-.11.86-.58.8-1.1-.05-.42-.28-1.06-.56-1.15-.68-.2-1.44-.13-2.19-.04Z"/>
      <path class="st17" d="M251.39,208.75h-1.95v2.53h3.01c.02.27.03.49.06.77h-4.02v-7.13h3.95v.8h-3.01v2.16h2.83v.85c-.29,0-.55,0-.87,0Z"/>
      <path class="st2" d="M238.04,206.28c.16-.4.26-.77.44-1.09.09-.16.34-.29.53-.31.16-.01.43.13.49.26.91,2.29,1.79,4.58,2.68,6.87-.81.34-1.03-.13-1.24-.72-.52-1.42-.54-1.42-1.83-1.42q-1.55,0-2.15,1.56-.27.71-1.15.59c.74-1.91,1.48-3.81,2.24-5.76M238.44,207.48c-.18.5-.36,1.01-.55,1.54h2.2c-.37-1.03-.72-2-1.11-3.08-.19.56-.34,1-.54,1.54Z"/>
      <path class="st24" d="M245.13,207.06c0,1.69,0,3.32,0,4.99h-.91v-6.3h-2.24v-.81h5.39c.01.23.02.45.03.77h-2.27c0,.49,0,.88,0,1.35Z"/>
      <path class="st24" d="M225.76,204.9c.89,0,1.72,0,2.59,0v.82h-2.16v6.35h-.91v-6.31h-2.26v-.87c.89,0,1.78,0,2.74,0Z"/>
      <path class="st14" d="M202.96,331.63c.61.68.67,1.43.43,2.21-.23.76-.76,1.11-1.6,1.1-.82,0-1.34-.39-1.56-1.16-.25-.85-.05-1.81.51-2.2.71-.49,1.45-.46,2.21.04Z"/>
      <path class="st17" d="M206.85,206.38c0,1.5,0,2.94,0,4.38,0,.37-.03.71.49.75.13,0,.23.23.35.35-.14.09-.27.24-.41.25-.7.03-1.41.01-2.13.01-.28-.76.4-.55.72-.76v-5.67q-.74-.31-.76-.75h2.75c-.23.27-.34.53-.48.55-.53.08-.55.42-.52.89Z"/>
      <path class="st32" d="M256.88,226.27c-1-.04-1.49-.3-1.62-1.19-.14-.96-.09-1.96.02-2.92.08-.66.63-1.03,1.33-1.05.7-.02,1.17.35,1.4.99.37,1.06.4,2.16,0,3.19-.16.41-.71.66-1.13.99M257.62,224.35c-.04-.66,0-1.33-.16-1.96-.07-.29-.52-.68-.8-.68-.27,0-.72.4-.79.69-.15.65-.17,1.35-.12,2.03.04.57.11,1.28.9,1.3.8.02.84-.68.97-1.38Z"/>
      <path class="st27" d="M276.21,344.67c-.12.54-.18,1.05-.37,1.49-.34.8-1.28,1.25-2.11,1.06-.16-.04-.28-.24-.5-.45,1.92-.27,2.22-.53,2.25-1.91-.63.5-1.29.6-1.93.13-.55-.41-.61-1.03-.49-1.67.14-.74.62-1.2,1.32-1.27.69-.07,1.33.27,1.57.96.17.5.18,1.06.26,1.65M274.06,342.74c-.13.4-.33.8-.37,1.21-.05.49.31.87.77.8.38-.06.89-.33,1.02-.64.37-.86-.38-1.61-1.42-1.36Z"/>
      <path class="st27" d="M278.91,342.13c1.01.29,1.11,1.5.64,2.21-.36.55-.83,1.03-1.25,1.53-.16.2-.33.39-.62.72.69,0,1.24-.03,1.78.01.2.02.38.2.57.3-.2.1-.4.27-.6.28-.84.03-1.69.01-2.72.01.18-.38.25-.64.41-.83.44-.53.92-1.01,1.37-1.53.2-.23.46-.48.51-.75.07-.41.13-1-.1-1.22-.21-.21-.8-.07-1.22-.07-.23,0-.45.04-.69-.05.52-.62,1.14-.8,1.92-.62Z"/>
      <path class="st27" d="M267.62,343.75c.31-.45.55-.89.87-1.26.19-.21.5-.32.91-.55v3.33c.32.2.56.36.81.52-.03.07-.07.14-.1.21-.22.04-.43.08-.5.1-.2.43-.36.77-.52,1.1-.16-.33-.32-.67-.54-1.11h-2.09c-.05-1.04.77-1.56,1.16-2.34M268.36,343.57c-.4.6-.8,1.19-1.25,1.85h1.66v-2.47c-.15.22-.25.38-.41.61Z"/>
      <path class="st32" d="M275.43,224.55c-.25-.64-.78-.6-1.26-.68-.17-.03-.32-.17-.47-.26.16-.08.31-.19.48-.25.2-.07.5-.03.6-.16.22-.29.47-.65.45-.98,0-.2-.46-.47-.75-.54-.26-.06-.58.13-.88.18-.19.03-.39-.01-.77-.03,1.02-.9,2.37-.91,2.91-.19.46.62.23,1.37-.61,1.93.9.48,1.18,1.02.91,1.77-.28.75-1.19,1.1-2.38.9-.67-.11-.68-.12-.67-.53.73-.07,1.46-.09,2.15-.25.16-.04.21-.55.3-.91Z"/>
      <path class="st32" d="M261.99,226.15c-1.04.04-2.03.04-3.18.04.17-.35.26-.63.43-.84.44-.53.92-1.01,1.37-1.53.2-.23.44-.49.48-.77.06-.39.08-.94-.14-1.16-.21-.21-.76-.13-1.15-.08-.28.04-.57.47-.76-.17.59-.49,1.24-.71,2.01-.45.54.18.87.62.81,1.12-.07.55-.32,1.13-.63,1.6-.39.58-.92,1.06-1.5,1.7.71,0,1.31.02,1.91,0,.39-.02.52.13.36.53Z"/>
      <path class="st31" d="M278.91,224.51c-.18.44-.38.82-.51,1.22-.14.4-.35.6-.86.4.61-1.42,1.23-2.85,1.88-4.37-.78,0-1.43.02-2.08-.01-.17,0-.33-.2-.49-.31.15-.1.31-.27.46-.27.89-.03,1.79-.01,2.82-.01-.14,1.25-.82,2.23-1.21,3.36Z"/>
      <path class="st27" d="M265,345.11c-.24.57-.48,1.09-.67,1.61-.15.4-.36.59-.85.39.62-1.44,1.23-2.87,1.88-4.38h-2.47c-.2-.4-.16-.6.31-.6.92,0,1.83,0,2.84,0-.06,1.11-.7,1.97-1.04,2.97Z"/>
      <path class="st21" d="M133.76,190.17c-.65.58-1.24.67-1.75.26-.47-.37-.65-.86-.43-1.45.25-.69,1.02-1,1.69-.7.69.31.89,1,.49,1.89Z"/>
      <path class="st31" d="M270.02,221.69c.38-.23.71-.44,1.19-.72v5.13c-.58.12-.6.12-.6-.41,0-1.19,0-2.38,0-3.54-.46-.2-.7.89-1.2.05.19-.16.39-.32.62-.51Z"/>
      <path class="st15" d="M266.72,222.46c0-.18,0-.29,0-.5-.32.23-.6.42-.96.68-.05-.21-.17-.46-.12-.51.47-.39.98-.73,1.47-1.09.07.05.14.1.21.15,0,1.27,0,2.53,0,3.8,0,.26.04.53-.01.78-.04.19-.22.35-.34.52-.08-.03-.16-.07-.25-.1,0-1.22,0-2.44,0-3.72Z"/>
      <path class="st21" d="M99.97,367.57c-.25.6-.64.88-1.24.72-.52-.14-.78-.52-.72-1.06.06-.54.4-.84.93-.9.63-.06,1.02.39,1.03,1.24Z"/>
      <path class="st21" d="M257.1,381.69c.55-.38,1.09-.36,1.4.15.18.3.2.82.07,1.15-.18.46-.67.56-1.15.4-.69-.23-.84-.94-.32-1.7Z"/>
      <path class="st21" d="M204.8,186.91c-.84-.29-1.13-.76-.92-1.34.2-.54.75-.87,1.23-.6.32.18.64.59.69.93.07.59-.36.93-1,1.01Z"/>
      <path class="st21" d="M94.72,180.88c.89.03,1.3.43,1.22,1.12-.07.57-.6,1-1.16.81-.32-.11-.68-.45-.78-.77-.18-.54.15-.93.72-1.16Z"/>
      <path class="st21" d="M292.99,375.73c-.43-.35-.63-.77-.37-1.21.16-.27.51-.58.78-.58.33,0,.81.21.96.48.15.27.1.79-.08,1.09-.27.45-.77.48-1.3.22Z"/>
      <path class="st21" d="M279.48,179.54c.23-.56.64-.82,1.14-.65.31.1.67.43.75.72.08.29-.08.8-.32.97-.26.19-.76.23-1.09.13-.47-.15-.6-.62-.48-1.16Z"/>
      <path class="st21" d="M113.4,344.92c.32-.53.76-.71,1.17-.31.19.19.21.68.12.97-.05.16-.51.31-.76.28-.46-.06-.63-.43-.53-.94Z"/>
      <path class="st21" d="M205.21,371.73c.41.33.51.72.21,1.06-.16.19-.61.36-.76.27-.26-.16-.57-.55-.54-.81.06-.55.5-.74,1.09-.52Z"/>
      <path class="st21" d="M297.77,196.78c.06.64-.21.98-.8.93-.52-.04-.75-.43-.61-.91.06-.22.37-.53.55-.52.29.02.57.28.86.49Z"/>
      <path class="st21" d="M287.65,260.83c.36.07.76.1.95.3.13.14.08.61-.06.81-.12.17-.49.28-.73.25-.63-.08-.73-.75-.16-1.37Z"/>
      <path class="st31" d="M263.87,223.8c.27.11.48.22.68.33-.21.11-.42.25-.64.31-.2.05-.43.05-.62,0-.18-.05-.32-.22-.47-.33.17-.1.33-.24.51-.3.15-.05.32,0,.55,0Z"/>
      <path class="st27" d="M272.14,345.38c-.43,0-.81.05-1.17,0-.17-.03-.31-.24-.46-.37.04-.07.08-.13.13-.2.44,0,.88,0,1.32,0,.49,0,.5.23.19.58Z"/>
      <path class="st18" d="M149.57,260.27c4.6-2.2,9.41-.64,11.82,3.84,1.36,2.53,2.04,5.27,1.65,8.12-.52,3.84-3.95,6.94-7.89,7.41-1.56.19-3.11.15-4.62-.34-2.48-.8-4.09-2.52-4.79-4.98-1.01-3.55-.87-7.09.62-10.51.66-1.51,1.72-2.69,3.21-3.53Z"/>
      <path class="st18" d="M190.76,297.53c-3.04-.05-5.21-1.54-6.84-3.89-1.66-2.41-2.35-5.15-2.29-8.03.07-3.22,1.71-5.61,4.48-7.14,3.28-1.81,6.65-1.95,9.96,0,1.33.78,2.23,2,2.72,3.43,1.26,3.66,1.2,7.35-.29,10.92-1.28,3.06-3.73,4.57-7.03,4.71-.21,0-.42,0-.7,0Z"/>
      <path class="st18" d="M239.71,326.51c1.26-2.21,4.24-2.9,5.95-1.4.21.18.4.4.55.64.99,1.52.82,4.5-.31,5.9-1.2,1.49-3.75,1.58-5.08.09-1.32-1.49-1.81-3.22-1.12-5.23Z"/>
      <path class="st18" d="M258.89,319.42c.31-.61.59-1.17.87-1.72v10.25h-6.59c1.93-2.88,3.81-5.68,5.72-8.53Z"/>
      <path class="st18" d="M193.73,209.08c0-.11,0-.19.02-.2.52-.32,2.47-.19,2.78.29.23.35.39.94.24,1.28-.15.37-.66.73-1.07.83-.6.14-1.25.04-1.97.04,0-.72,0-1.43,0-2.22Z"/>
      <path class="st25" d="M195.12,207.95c-.48.01-.9.01-1.35.01v-2.32c.64.03,1.27.05,1.89.11.65.06,1.04.41,1.03,1.1,0,.65-.39.99-1.15,1.08-.12.01-.23.01-.42.03Z"/>
      <path class="st18" d="M232.61,205.82c1.46.62,2,1.95,1.54,3.68-.38,1.44-1.57,2.01-3.69,1.76v-5.61c.71.06,1.4.11,2.15.18Z"/>
      <path class="st25" d="M200.29,205.86c.74-.03,1.5-.1,2.18.1.29.08.51.73.56,1.15.06.52-.24.99-.8,1.1-.61.12-1.24.13-1.96.2,0-.9,0-1.7.01-2.55Z"/>
      <path class="st25" d="M238.47,207.43c.18-.49.33-.94.52-1.49.39,1.08.74,2.05,1.11,3.08h-2.2c.19-.53.37-1.03.57-1.59Z"/>
      <path class="st25" d="M257.6,224.41c-.13.64-.16,1.34-.96,1.32-.79-.02-.87-.73-.9-1.3-.04-.67-.02-1.38.12-2.03.07-.29.51-.69.79-.69.28,0,.73.38.8.68.16.63.12,1.3.15,2.02Z"/>
      <path class="st18" d="M274.11,342.72c.99-.22,1.74.53,1.37,1.39-.14.31-.65.59-1.02.64-.46.07-.81-.31-.77-.8.04-.41.24-.81.42-1.23Z"/>
      <path class="st25" d="M268.39,343.53c.13-.19.23-.35.38-.57v2.47h-1.66c.45-.66.85-1.26,1.28-1.89Z"/>
    </g>
  </g>
</svg>